<mxfile host="drawio-plugin" modified="2023-06-19T08:36:52.413Z" agent="5.0 (X11; Linux x86_64) AppleWebKit/537.36 (KHTML, like Gecko) Chrome/104.0.5112.102 Safari/537.36" etag="hYBzrWkrLYS0mbpoSM1k" version="20.5.3" type="embed"><diagram id="vb3-Rn46idH5Ja3HR-pR" name="Page-1"><mxGraphModel dx="660" dy="378" grid="1" gridSize="10" guides="1" tooltips="1" connect="1" arrows="1" fold="1" page="1" pageScale="1" pageWidth="850" pageHeight="1100" math="0" shadow="0"><root><mxCell id="0"/><mxCell id="1" parent="0"/><mxCell id="2" value="&lt;br&gt;" style="shape=umlActor;verticalLabelPosition=bottom;verticalAlign=top;html=1;outlineConnect=0;" parent="1" vertex="1"><mxGeometry x="419.99" y="190" width="18" height="40" as="geometry"/></mxCell><mxCell id="3" value="" style="endArrow=classic;startArrow=classic;html=1;rounded=0;exitX=0;exitY=0.5;exitDx=0;exitDy=0;" parent="1" source="4" target="2" edge="1"><mxGeometry width="50" height="50" relative="1" as="geometry"><mxPoint x="430" y="300" as="sourcePoint"/><mxPoint x="428.89" y="240" as="targetPoint"/></mxGeometry></mxCell><mxCell id="21" style="edgeStyle=orthogonalEdgeStyle;rounded=0;orthogonalLoop=1;jettySize=auto;html=1;exitX=0.5;exitY=0;exitDx=0;exitDy=0;entryX=0.5;entryY=1;entryDx=0;entryDy=0;fontSize=8;" parent="1" source="4" target="18" edge="1"><mxGeometry relative="1" as="geometry"/></mxCell><mxCell id="4" value="HTTP3 Router" style="shape=hexagon;perimeter=hexagonPerimeter2;whiteSpace=wrap;html=1;fixedSize=1;direction=south;" parent="1" vertex="1"><mxGeometry x="399.62" y="320" width="58.75" height="70" as="geometry"/></mxCell><mxCell id="17" value="" style="edgeStyle=orthogonalEdgeStyle;rounded=0;orthogonalLoop=1;jettySize=auto;html=1;" parent="1" source="5" target="16" edge="1"><mxGeometry relative="1" as="geometry"><Array as="points"><mxPoint x="520" y="220"/></Array></mxGeometry></mxCell><mxCell id="5" value="Auth Service" style="whiteSpace=wrap;html=1;rounded=1;arcSize=50;align=center;verticalAlign=middle;strokeWidth=1;autosize=1;spacing=4;treeFolding=1;treeMoving=1;newEdgeStyle={&quot;edgeStyle&quot;:&quot;entityRelationEdgeStyle&quot;,&quot;startArrow&quot;:&quot;none&quot;,&quot;endArrow&quot;:&quot;none&quot;,&quot;segment&quot;:10,&quot;curved&quot;:1};" parent="1" vertex="1"><mxGeometry x="590" y="190" width="50" height="50" as="geometry"/></mxCell><mxCell id="16" value="&lt;font style=&quot;font-size: 8px;&quot;&gt;REDIS&lt;/font&gt;" style="rhombus;whiteSpace=wrap;html=1;rounded=1;arcSize=50;strokeWidth=1;spacing=4;" parent="1" vertex="1"><mxGeometry x="480" y="190" width="50" height="50" as="geometry"/></mxCell><mxCell id="19" style="edgeStyle=orthogonalEdgeStyle;rounded=0;orthogonalLoop=1;jettySize=auto;html=1;fontSize=8;" parent="1" source="18" target="16" edge="1"><mxGeometry relative="1" as="geometry"/></mxCell><mxCell id="20" style="edgeStyle=orthogonalEdgeStyle;rounded=0;orthogonalLoop=1;jettySize=auto;html=1;exitX=1;exitY=0.5;exitDx=0;exitDy=0;entryX=0.5;entryY=1;entryDx=0;entryDy=0;fontSize=8;" parent="1" source="18" target="5" edge="1"><mxGeometry relative="1" as="geometry"><Array as="points"><mxPoint x="615" y="310"/></Array></mxGeometry></mxCell><mxCell id="18" value="" style="shape=orEllipse;perimeter=ellipsePerimeter;whiteSpace=wrap;html=1;backgroundOutline=1;" parent="1" vertex="1"><mxGeometry x="540" y="290" width="40" height="40" as="geometry"/></mxCell><mxCell id="22" value="" style="rhombus;whiteSpace=wrap;html=1;" vertex="1" parent="1"><mxGeometry x="425" y="340" width="80" height="80" as="geometry"/></mxCell></root></mxGraphModel></diagram></mxfile>